<svg width="100%" height="100%" viewBox="0 0 230 297" preserveAspectRatio="xMinYMin meet" xmlns="http://www.w3.org/2000/svg">    
    <rect width="148em" height="230em" fill="none"/>
    <g stroke="#161b2b" stroke-width="1">
        <line x1="0" y1="10" x2="230" y2="10"/>
        <line x1="0" y1="30" x2="230" y2="30"/>
        <line x1="0" y1="50" x2="230" y2="50"/>
        <line x1="0" y1="70" x2="230" y2="70"/>
        <line x1="0" y1="90" x2="230" y2="90"/>
        <line x1="0" y1="110" x2="230" y2="110"/>
        <line x1="0" y1="130" x2="230" y2="130"/>
        <line x1="0" y1="150" x2="230" y2="150"/>
        <line x1="0" y1="170" x2="230" y2="170"/>
        <line x1="0" y1="190" x2="230" y2="190"/>
        <line x1="0" y1="210" x2="230" y2="210"/>
        <line x1="0" y1="230" x2="230" y2="230"/>
        <line x1="0" y1="250" x2="230" y2="250"/>
        <line x1="0" y1="270" x2="230" y2="270"/>
        <line x1="0" y1="290" x2="230" y2="290"/>
    </g>
</svg>